<svg width="40" height="40" viewBox="0 0 40 40" fill="none" xmlns="http://www.w3.org/2000/svg">
<rect width="40" height="40" rx="8" fill="white"/>
<g clip-path="url(#clip0_2115_1895)">
<path d="M20 33C27.1797 33 33 27.4036 33 20.5C33 13.5964 27.1797 8 20 8C12.8203 8 7 13.5964 7 20.5C7 27.4036 12.8203 33 20 33Z" fill="url(#paint0_linear_2115_1895)"/>
<path fill-rule="evenodd" clip-rule="evenodd" d="M12.8845 20.3679C16.6743 18.7803 19.2014 17.7337 20.4659 17.228C24.0761 15.7841 24.8263 15.5333 25.3152 15.525C25.4228 15.5232 25.6632 15.5488 25.819 15.6703C25.9505 15.7729 25.9867 15.9115 26.004 16.0088C26.0213 16.1061 26.0429 16.3277 26.0257 16.5009C25.8301 18.4775 24.9836 23.274 24.5529 25.4878C24.3707 26.4245 24.0118 26.7386 23.6645 26.7693C22.9095 26.8361 22.3363 26.2896 21.6051 25.8287C20.4609 25.1076 19.8145 24.6586 18.7039 23.9549C17.4204 23.1416 18.2524 22.6946 18.9839 21.9641C19.1753 21.7729 22.5016 18.8638 22.566 18.5999C22.574 18.5669 22.5815 18.4439 22.5055 18.3789C22.4295 18.3139 22.3173 18.3362 22.2363 18.3538C22.1216 18.3789 20.2937 19.5405 16.7529 21.8388C16.234 22.1814 15.7641 22.3483 15.3431 22.3395C14.8789 22.3299 13.986 22.0872 13.3223 21.8797C12.5081 21.6252 11.8611 21.4907 11.9174 21.0586C11.9468 20.8335 12.2691 20.6033 12.8845 20.3679Z" fill="white"/>
</g>
<defs>
<linearGradient id="paint0_linear_2115_1895" x1="20" y1="8" x2="20" y2="32.8146" gradientUnits="userSpaceOnUse">
<stop stop-color="#2AABEE"/>
<stop offset="1" stop-color="#229ED9"/>
</linearGradient>
<clipPath id="clip0_2115_1895">
<rect width="26" height="25" fill="white" transform="translate(7 8)"/>
</clipPath>
</defs>
</svg>
