<svg width="40" height="40" viewBox="0 0 40 40" fill="none" xmlns="http://www.w3.org/2000/svg">
<rect width="40" height="40" rx="8" fill="white"/>
<g clip-path="url(#clip0_5_5418)">
<g clip-path="url(#clip1_5_5418)">
<path d="M33 20C33 12.8204 27.1796 7 20 7C12.8204 7 7 12.8204 7 20C7 26.0965 11.1974 31.2122 16.8597 32.6173V23.9728H14.1791V20H16.8597V18.2882C16.8597 13.8635 18.8622 11.8126 23.2063 11.8126C24.03 11.8126 25.4512 11.9743 26.0325 12.1355V15.7365C25.7257 15.7043 25.1927 15.6882 24.5308 15.6882C22.3993 15.6882 21.5756 16.4957 21.5756 18.595V20H25.8219L25.0924 23.9728H21.5756V32.9048C28.0127 32.1274 33.0005 26.6466 33.0005 20H33Z" fill="#0866FF"/>
<path d="M25.0918 23.9727L25.8214 19.9999H21.5751V18.5949C21.5751 16.4956 22.3987 15.6881 24.5302 15.6881C25.1922 15.6881 25.7252 15.7042 26.032 15.7364V12.1354C25.4506 11.9737 24.0295 11.8125 23.2058 11.8125C18.8617 11.8125 16.8592 13.8634 16.8592 18.2881V19.9999H14.1786V23.9727H16.8592V32.6172C17.8649 32.8668 18.9168 32.9999 19.9995 32.9999C20.5325 32.9999 21.0582 32.9671 21.5745 32.9047V23.9727H25.0913H25.0918Z" fill="white"/>
</g>
</g>
<defs>
<clipPath id="clip0_5_5418">
<rect width="26" height="26" fill="white" transform="translate(7 7)"/>
</clipPath>
<clipPath id="clip1_5_5418">
<rect width="26" height="26" fill="white" transform="translate(7 7)"/>
</clipPath>
</defs>
</svg>
