<svg width="40" height="40" viewBox="0 0 40 40" fill="none" xmlns="http://www.w3.org/2000/svg">
<rect width="40" height="40" rx="8" fill="white"/>
<g clip-path="url(#clip0_2115_1890)">
<path d="M32.4822 14.1854C32.3352 13.6748 32.0455 13.2088 31.6421 12.8341C31.2387 12.4593 30.7357 12.1889 30.1835 12.05C28.1508 11.5454 20.0258 11.5454 20.0258 11.5454C20.0258 11.5454 11.9008 11.5454 9.86806 12.05C9.31588 12.1889 8.81292 12.4593 8.40952 12.8341C8.00611 13.2088 7.71642 13.6748 7.56942 14.1854C7.02579 16.07 7.02579 20 7.02579 20C7.02579 20 7.02579 23.93 7.56942 25.8145C7.71642 26.3251 8.00611 26.7911 8.40952 27.1658C8.81292 27.5406 9.31588 27.811 9.86806 27.95C11.9008 28.4545 20.0258 28.4545 20.0258 28.4545C20.0258 28.4545 28.1508 28.4545 30.1835 27.95C30.7357 27.811 31.2387 27.5406 31.6421 27.1658C32.0455 26.7911 32.3352 26.3251 32.4822 25.8145C33.0258 23.93 33.0258 20 33.0258 20C33.0258 20 33.0258 16.07 32.4822 14.1854Z" fill="#FF0302"/>
<path d="M17.3667 23.5689V16.4316L24.1621 20.0003L17.3667 23.5689Z" fill="#FEFEFE"/>
</g>
<defs>
<clipPath id="clip0_2115_1890">
<rect width="26" height="24" fill="white" transform="translate(7 8)"/>
</clipPath>
</defs>
</svg>
